<mxfile host="app.diagrams.net" agent="Mozilla/5.0 (Windows NT 10.0; Win64; x64) AppleWebKit/537.36 (KHTML, like Gecko) Chrome/133.0.0.0 Safari/537.36" version="26.0.16">
  <diagram name="Página-1" id="cJjQbAe7UEZPXqIijp7Y">
    <mxGraphModel dx="4121" dy="1754" grid="1" gridSize="10" guides="1" tooltips="1" connect="1" arrows="1" fold="1" page="1" pageScale="1" pageWidth="827" pageHeight="1169" math="0" shadow="0">
      <root>
        <mxCell id="0" />
        <mxCell id="1" parent="0" />
        <mxCell id="md73Da2JN6F6e3Sj_Bb3-4" style="edgeStyle=orthogonalEdgeStyle;rounded=0;orthogonalLoop=1;jettySize=auto;html=1;" edge="1" parent="1" source="gwqRqJV9MufYUa2WruZO-1" target="md73Da2JN6F6e3Sj_Bb3-3">
          <mxGeometry relative="1" as="geometry" />
        </mxCell>
        <mxCell id="gwqRqJV9MufYUa2WruZO-1" value="&lt;h1 style=&quot;font-size: 20px;&quot;&gt;Inicio&lt;/h1&gt;" style="ellipse;whiteSpace=wrap;html=1;fontSize=20;fontStyle=1;fillColor=#d5e8d4;strokeColor=#82b366;" parent="1" vertex="1">
          <mxGeometry x="40" y="40" width="120" height="80" as="geometry" />
        </mxCell>
        <mxCell id="md73Da2JN6F6e3Sj_Bb3-7" style="edgeStyle=orthogonalEdgeStyle;rounded=0;orthogonalLoop=1;jettySize=auto;html=1;" edge="1" parent="1" source="md73Da2JN6F6e3Sj_Bb3-3" target="md73Da2JN6F6e3Sj_Bb3-5">
          <mxGeometry relative="1" as="geometry" />
        </mxCell>
        <mxCell id="md73Da2JN6F6e3Sj_Bb3-3" value="Cadastrar Movimentação&lt;div&gt;(abrir modal)&lt;/div&gt;" style="rounded=0;whiteSpace=wrap;html=1;fontStyle=1;fillColor=#dae8fc;strokeColor=#6c8ebf;" vertex="1" parent="1">
          <mxGeometry x="200" y="50" width="120" height="60" as="geometry" />
        </mxCell>
        <mxCell id="md73Da2JN6F6e3Sj_Bb3-5" value="Modal de cadastro de Movimentações" style="swimlane;fontStyle=1;childLayout=stackLayout;horizontal=1;startSize=30;horizontalStack=0;resizeParent=1;resizeParentMax=0;resizeLast=0;collapsible=1;marginBottom=0;whiteSpace=wrap;html=1;fillColor=#dae8fc;strokeColor=#6c8ebf;" vertex="1" parent="1">
          <mxGeometry x="360" y="45" width="160" height="270" as="geometry" />
        </mxCell>
        <mxCell id="md73Da2JN6F6e3Sj_Bb3-6" value="Ativos * (obrigatório)" style="text;strokeColor=none;fillColor=none;align=left;verticalAlign=middle;spacingLeft=4;spacingRight=4;overflow=hidden;points=[[0,0.5],[1,0.5]];portConstraint=eastwest;rotatable=0;whiteSpace=wrap;html=1;fontStyle=1" vertex="1" parent="md73Da2JN6F6e3Sj_Bb3-5">
          <mxGeometry y="30" width="160" height="40" as="geometry" />
        </mxCell>
        <mxCell id="md73Da2JN6F6e3Sj_Bb3-8" value="Tipo Movimentações * (obrigatório)" style="text;strokeColor=none;fillColor=none;align=left;verticalAlign=middle;spacingLeft=4;spacingRight=4;overflow=hidden;points=[[0,0.5],[1,0.5]];portConstraint=eastwest;rotatable=0;whiteSpace=wrap;html=1;fontStyle=1" vertex="1" parent="md73Da2JN6F6e3Sj_Bb3-5">
          <mxGeometry y="70" width="160" height="40" as="geometry" />
        </mxCell>
        <mxCell id="md73Da2JN6F6e3Sj_Bb3-9" value="Quantidade * (obrigatório)" style="text;strokeColor=none;fillColor=none;align=left;verticalAlign=middle;spacingLeft=4;spacingRight=4;overflow=hidden;points=[[0,0.5],[1,0.5]];portConstraint=eastwest;rotatable=0;whiteSpace=wrap;html=1;fontStyle=1" vertex="1" parent="md73Da2JN6F6e3Sj_Bb3-5">
          <mxGeometry y="110" width="160" height="40" as="geometry" />
        </mxCell>
        <mxCell id="md73Da2JN6F6e3Sj_Bb3-10" value="Local Origem" style="text;strokeColor=none;fillColor=none;align=left;verticalAlign=middle;spacingLeft=4;spacingRight=4;overflow=hidden;points=[[0,0.5],[1,0.5]];portConstraint=eastwest;rotatable=0;whiteSpace=wrap;html=1;fontStyle=1" vertex="1" parent="md73Da2JN6F6e3Sj_Bb3-5">
          <mxGeometry y="150" width="160" height="40" as="geometry" />
        </mxCell>
        <mxCell id="md73Da2JN6F6e3Sj_Bb3-12" value="Local Destino" style="text;strokeColor=none;fillColor=none;align=left;verticalAlign=middle;spacingLeft=4;spacingRight=4;overflow=hidden;points=[[0,0.5],[1,0.5]];portConstraint=eastwest;rotatable=0;whiteSpace=wrap;html=1;fontStyle=1" vertex="1" parent="md73Da2JN6F6e3Sj_Bb3-5">
          <mxGeometry y="190" width="160" height="40" as="geometry" />
        </mxCell>
        <mxCell id="md73Da2JN6F6e3Sj_Bb3-13" value="Descrição" style="text;strokeColor=none;fillColor=none;align=left;verticalAlign=middle;spacingLeft=4;spacingRight=4;overflow=hidden;points=[[0,0.5],[1,0.5]];portConstraint=eastwest;rotatable=0;whiteSpace=wrap;html=1;fontStyle=1" vertex="1" parent="md73Da2JN6F6e3Sj_Bb3-5">
          <mxGeometry y="230" width="160" height="40" as="geometry" />
        </mxCell>
        <mxCell id="md73Da2JN6F6e3Sj_Bb3-14" value="" style="edgeStyle=orthogonalEdgeStyle;rounded=0;orthogonalLoop=1;jettySize=auto;html=1;" edge="1" parent="1" source="md73Da2JN6F6e3Sj_Bb3-16" target="md73Da2JN6F6e3Sj_Bb3-18">
          <mxGeometry relative="1" as="geometry" />
        </mxCell>
        <mxCell id="md73Da2JN6F6e3Sj_Bb3-15" value="" style="edgeStyle=orthogonalEdgeStyle;rounded=0;orthogonalLoop=1;jettySize=auto;html=1;" edge="1" parent="1" source="md73Da2JN6F6e3Sj_Bb3-16" target="md73Da2JN6F6e3Sj_Bb3-19">
          <mxGeometry relative="1" as="geometry" />
        </mxCell>
        <mxCell id="md73Da2JN6F6e3Sj_Bb3-16" value="Botões" style="rhombus;whiteSpace=wrap;html=1;fillColor=#fff2cc;strokeColor=#d6b656;fontStyle=1;startSize=30;" vertex="1" parent="1">
          <mxGeometry x="400" y="350" width="80" height="80" as="geometry" />
        </mxCell>
        <mxCell id="md73Da2JN6F6e3Sj_Bb3-22" style="edgeStyle=orthogonalEdgeStyle;rounded=0;orthogonalLoop=1;jettySize=auto;html=1;entryX=0;entryY=0.5;entryDx=0;entryDy=0;" edge="1" parent="1" source="md73Da2JN6F6e3Sj_Bb3-18" target="md73Da2JN6F6e3Sj_Bb3-21">
          <mxGeometry relative="1" as="geometry">
            <Array as="points">
              <mxPoint x="300" y="485" />
            </Array>
          </mxGeometry>
        </mxCell>
        <mxCell id="md73Da2JN6F6e3Sj_Bb3-18" value="Botão para salvar as informações" style="whiteSpace=wrap;html=1;fillColor=#d5e8d4;strokeColor=#82b366;fontStyle=1;startSize=30;" vertex="1" parent="1">
          <mxGeometry x="240" y="360" width="120" height="60" as="geometry" />
        </mxCell>
        <mxCell id="md73Da2JN6F6e3Sj_Bb3-19" value="Botão pra limpar o modal" style="whiteSpace=wrap;html=1;fillColor=#f5f5f5;strokeColor=#666666;fontStyle=1;startSize=30;fontColor=#333333;" vertex="1" parent="1">
          <mxGeometry x="520" y="360" width="120" height="60" as="geometry" />
        </mxCell>
        <mxCell id="md73Da2JN6F6e3Sj_Bb3-20" style="edgeStyle=orthogonalEdgeStyle;rounded=0;orthogonalLoop=1;jettySize=auto;html=1;entryX=0.496;entryY=0.053;entryDx=0;entryDy=0;entryPerimeter=0;" edge="1" parent="1" source="md73Da2JN6F6e3Sj_Bb3-5" target="md73Da2JN6F6e3Sj_Bb3-16">
          <mxGeometry relative="1" as="geometry" />
        </mxCell>
        <mxCell id="md73Da2JN6F6e3Sj_Bb3-32" style="edgeStyle=orthogonalEdgeStyle;rounded=0;orthogonalLoop=1;jettySize=auto;html=1;entryX=0.5;entryY=0;entryDx=0;entryDy=0;" edge="1" parent="1" source="md73Da2JN6F6e3Sj_Bb3-21" target="md73Da2JN6F6e3Sj_Bb3-25">
          <mxGeometry relative="1" as="geometry" />
        </mxCell>
        <mxCell id="md73Da2JN6F6e3Sj_Bb3-21" value="Validação para verificar se os campos obrigatórios estão vazios" style="whiteSpace=wrap;html=1;fillColor=#dae8fc;strokeColor=#6c8ebf;fontStyle=1;startSize=30;" vertex="1" parent="1">
          <mxGeometry x="375" y="450" width="130" height="70" as="geometry" />
        </mxCell>
        <mxCell id="md73Da2JN6F6e3Sj_Bb3-23" value="" style="edgeStyle=orthogonalEdgeStyle;rounded=0;orthogonalLoop=1;jettySize=auto;html=1;" edge="1" parent="1" source="md73Da2JN6F6e3Sj_Bb3-25" target="md73Da2JN6F6e3Sj_Bb3-26">
          <mxGeometry relative="1" as="geometry" />
        </mxCell>
        <mxCell id="md73Da2JN6F6e3Sj_Bb3-92" value="" style="edgeStyle=orthogonalEdgeStyle;rounded=0;orthogonalLoop=1;jettySize=auto;html=1;" edge="1" parent="1" source="md73Da2JN6F6e3Sj_Bb3-25" target="md73Da2JN6F6e3Sj_Bb3-91">
          <mxGeometry relative="1" as="geometry" />
        </mxCell>
        <mxCell id="md73Da2JN6F6e3Sj_Bb3-25" value="Verificação" style="rhombus;whiteSpace=wrap;html=1;fillColor=#fff2cc;strokeColor=#d6b656;fontStyle=1;startSize=30;" vertex="1" parent="1">
          <mxGeometry x="400" y="550" width="80" height="80" as="geometry" />
        </mxCell>
        <mxCell id="md73Da2JN6F6e3Sj_Bb3-26" value="Alerta informando para preencher os campos obrigatórios" style="whiteSpace=wrap;html=1;fillColor=#f8cecc;strokeColor=#b85450;fontStyle=1;startSize=30;" vertex="1" parent="1">
          <mxGeometry x="520" y="560" width="120" height="60" as="geometry" />
        </mxCell>
        <mxCell id="md73Da2JN6F6e3Sj_Bb3-27" value="Não" style="rounded=0;whiteSpace=wrap;html=1;fillColor=#f8cecc;strokeColor=#b85450;fontStyle=1" vertex="1" parent="1">
          <mxGeometry x="480" y="560" width="30" height="20" as="geometry" />
        </mxCell>
        <mxCell id="md73Da2JN6F6e3Sj_Bb3-79" style="edgeStyle=orthogonalEdgeStyle;rounded=0;orthogonalLoop=1;jettySize=auto;html=1;" edge="1" parent="1" source="md73Da2JN6F6e3Sj_Bb3-29" target="md73Da2JN6F6e3Sj_Bb3-49">
          <mxGeometry relative="1" as="geometry" />
        </mxCell>
        <mxCell id="md73Da2JN6F6e3Sj_Bb3-29" value="Alerta de movimentação cadastrada" style="whiteSpace=wrap;html=1;fillColor=#d5e8d4;strokeColor=#82b366;fontStyle=1;startSize=30;" vertex="1" parent="1">
          <mxGeometry x="-450" y="560" width="120" height="60" as="geometry" />
        </mxCell>
        <mxCell id="md73Da2JN6F6e3Sj_Bb3-30" value="Sim" style="rounded=0;whiteSpace=wrap;html=1;fillColor=#d5e8d4;strokeColor=#82b366;fontStyle=1" vertex="1" parent="1">
          <mxGeometry x="370" y="560" width="30" height="20" as="geometry" />
        </mxCell>
        <mxCell id="md73Da2JN6F6e3Sj_Bb3-78" style="edgeStyle=orthogonalEdgeStyle;rounded=0;orthogonalLoop=1;jettySize=auto;html=1;" edge="1" parent="1" source="md73Da2JN6F6e3Sj_Bb3-31" target="md73Da2JN6F6e3Sj_Bb3-29">
          <mxGeometry relative="1" as="geometry" />
        </mxCell>
        <mxCell id="md73Da2JN6F6e3Sj_Bb3-31" value="Insert da informação no banco de dados" style="whiteSpace=wrap;html=1;fillColor=#d5e8d4;strokeColor=#82b366;fontStyle=1;startSize=30;" vertex="1" parent="1">
          <mxGeometry x="-290" y="560" width="120" height="60" as="geometry" />
        </mxCell>
        <mxCell id="md73Da2JN6F6e3Sj_Bb3-36" value="Tipo Mov" style="swimlane;fontStyle=1;childLayout=stackLayout;horizontal=1;startSize=30;horizontalStack=0;resizeParent=1;resizeParentMax=0;resizeLast=0;collapsible=1;marginBottom=0;whiteSpace=wrap;html=1;fillColor=#dae8fc;strokeColor=#6c8ebf;" vertex="1" parent="1">
          <mxGeometry x="560" y="155" width="160" height="150" as="geometry" />
        </mxCell>
        <mxCell id="md73Da2JN6F6e3Sj_Bb3-37" value="Adicionar" style="text;strokeColor=none;fillColor=none;align=left;verticalAlign=middle;spacingLeft=4;spacingRight=4;overflow=hidden;points=[[0,0.5],[1,0.5]];portConstraint=eastwest;rotatable=0;whiteSpace=wrap;html=1;fontStyle=1" vertex="1" parent="md73Da2JN6F6e3Sj_Bb3-36">
          <mxGeometry y="30" width="160" height="40" as="geometry" />
        </mxCell>
        <mxCell id="md73Da2JN6F6e3Sj_Bb3-39" value="Realocar" style="text;strokeColor=none;fillColor=none;align=left;verticalAlign=middle;spacingLeft=4;spacingRight=4;overflow=hidden;points=[[0,0.5],[1,0.5]];portConstraint=eastwest;rotatable=0;whiteSpace=wrap;html=1;fontStyle=1" vertex="1" parent="md73Da2JN6F6e3Sj_Bb3-36">
          <mxGeometry y="70" width="160" height="40" as="geometry" />
        </mxCell>
        <mxCell id="md73Da2JN6F6e3Sj_Bb3-40" value="Remover" style="text;strokeColor=none;fillColor=none;align=left;verticalAlign=middle;spacingLeft=4;spacingRight=4;overflow=hidden;points=[[0,0.5],[1,0.5]];portConstraint=eastwest;rotatable=0;whiteSpace=wrap;html=1;fontStyle=1" vertex="1" parent="md73Da2JN6F6e3Sj_Bb3-36">
          <mxGeometry y="110" width="160" height="40" as="geometry" />
        </mxCell>
        <mxCell id="md73Da2JN6F6e3Sj_Bb3-35" style="edgeStyle=orthogonalEdgeStyle;rounded=0;orthogonalLoop=1;jettySize=auto;html=1;" edge="1" parent="1" source="md73Da2JN6F6e3Sj_Bb3-8" target="md73Da2JN6F6e3Sj_Bb3-36">
          <mxGeometry relative="1" as="geometry">
            <mxPoint x="540" y="135" as="targetPoint" />
          </mxGeometry>
        </mxCell>
        <mxCell id="md73Da2JN6F6e3Sj_Bb3-45" value="Fazendo um Select e buscando todos os Ativos" style="rounded=0;whiteSpace=wrap;html=1;fontStyle=1;fillColor=#dae8fc;strokeColor=#6c8ebf;" vertex="1" parent="1">
          <mxGeometry x="560" y="65" width="120" height="60" as="geometry" />
        </mxCell>
        <mxCell id="md73Da2JN6F6e3Sj_Bb3-46" style="edgeStyle=orthogonalEdgeStyle;rounded=0;orthogonalLoop=1;jettySize=auto;html=1;" edge="1" parent="1" source="md73Da2JN6F6e3Sj_Bb3-6" target="md73Da2JN6F6e3Sj_Bb3-45">
          <mxGeometry relative="1" as="geometry" />
        </mxCell>
        <mxCell id="md73Da2JN6F6e3Sj_Bb3-47" style="edgeStyle=orthogonalEdgeStyle;rounded=0;orthogonalLoop=1;jettySize=auto;html=1;entryX=0.5;entryY=0;entryDx=0;entryDy=0;" edge="1" parent="1" source="md73Da2JN6F6e3Sj_Bb3-49" target="md73Da2JN6F6e3Sj_Bb3-51">
          <mxGeometry relative="1" as="geometry" />
        </mxCell>
        <mxCell id="md73Da2JN6F6e3Sj_Bb3-48" style="edgeStyle=orthogonalEdgeStyle;rounded=0;orthogonalLoop=1;jettySize=auto;html=1;" edge="1" parent="1" source="md73Da2JN6F6e3Sj_Bb3-49" target="md73Da2JN6F6e3Sj_Bb3-60">
          <mxGeometry relative="1" as="geometry" />
        </mxCell>
        <mxCell id="md73Da2JN6F6e3Sj_Bb3-49" value="Tela de listagem de movimentações cadastradas" style="whiteSpace=wrap;html=1;fillColor=#dae8fc;strokeColor=#6c8ebf;fontStyle=1;startSize=30;" vertex="1" parent="1">
          <mxGeometry x="-450" y="670" width="120" height="60" as="geometry" />
        </mxCell>
        <mxCell id="md73Da2JN6F6e3Sj_Bb3-50" style="edgeStyle=orthogonalEdgeStyle;rounded=0;orthogonalLoop=1;jettySize=auto;html=1;entryX=0.5;entryY=0;entryDx=0;entryDy=0;" edge="1" parent="1" source="md73Da2JN6F6e3Sj_Bb3-51" target="md73Da2JN6F6e3Sj_Bb3-52">
          <mxGeometry relative="1" as="geometry" />
        </mxCell>
        <mxCell id="md73Da2JN6F6e3Sj_Bb3-51" value="Usando a biblioteca dataTables para adicionar a tabela opções de:" style="whiteSpace=wrap;html=1;fontStyle=1;fillColor=#dae8fc;strokeColor=#6c8ebf;" vertex="1" parent="1">
          <mxGeometry x="-450" y="770" width="120" height="60" as="geometry" />
        </mxCell>
        <mxCell id="md73Da2JN6F6e3Sj_Bb3-52" value="Opções" style="swimlane;fontStyle=1;childLayout=stackLayout;horizontal=1;startSize=30;horizontalStack=0;resizeParent=1;resizeParentMax=0;resizeLast=0;collapsible=1;marginBottom=0;whiteSpace=wrap;html=1;fillColor=#dae8fc;strokeColor=#6c8ebf;" vertex="1" parent="1">
          <mxGeometry x="-460" y="870" width="140" height="210" as="geometry" />
        </mxCell>
        <mxCell id="md73Da2JN6F6e3Sj_Bb3-53" value="Barra de Pesquisa" style="text;strokeColor=none;fillColor=none;align=left;verticalAlign=middle;spacingLeft=4;spacingRight=4;overflow=hidden;points=[[0,0.5],[1,0.5]];portConstraint=eastwest;rotatable=0;whiteSpace=wrap;html=1;fontStyle=1" vertex="1" parent="md73Da2JN6F6e3Sj_Bb3-52">
          <mxGeometry y="30" width="140" height="30" as="geometry" />
        </mxCell>
        <mxCell id="md73Da2JN6F6e3Sj_Bb3-54" value="Copiar para a área de transferência" style="text;strokeColor=none;fillColor=none;align=left;verticalAlign=middle;spacingLeft=4;spacingRight=4;overflow=hidden;points=[[0,0.5],[1,0.5]];portConstraint=eastwest;rotatable=0;whiteSpace=wrap;html=1;fontStyle=1" vertex="1" parent="md73Da2JN6F6e3Sj_Bb3-52">
          <mxGeometry y="60" width="140" height="30" as="geometry" />
        </mxCell>
        <mxCell id="md73Da2JN6F6e3Sj_Bb3-55" value="CSV" style="text;strokeColor=none;fillColor=none;align=left;verticalAlign=middle;spacingLeft=4;spacingRight=4;overflow=hidden;points=[[0,0.5],[1,0.5]];portConstraint=eastwest;rotatable=0;whiteSpace=wrap;html=1;fontStyle=1" vertex="1" parent="md73Da2JN6F6e3Sj_Bb3-52">
          <mxGeometry y="90" width="140" height="30" as="geometry" />
        </mxCell>
        <mxCell id="md73Da2JN6F6e3Sj_Bb3-56" value="Exel" style="text;strokeColor=none;fillColor=none;align=left;verticalAlign=middle;spacingLeft=4;spacingRight=4;overflow=hidden;points=[[0,0.5],[1,0.5]];portConstraint=eastwest;rotatable=0;whiteSpace=wrap;html=1;fontStyle=1" vertex="1" parent="md73Da2JN6F6e3Sj_Bb3-52">
          <mxGeometry y="120" width="140" height="30" as="geometry" />
        </mxCell>
        <mxCell id="md73Da2JN6F6e3Sj_Bb3-57" value="PDF" style="text;strokeColor=none;fillColor=none;align=left;verticalAlign=middle;spacingLeft=4;spacingRight=4;overflow=hidden;points=[[0,0.5],[1,0.5]];portConstraint=eastwest;rotatable=0;whiteSpace=wrap;html=1;fontStyle=1" vertex="1" parent="md73Da2JN6F6e3Sj_Bb3-52">
          <mxGeometry y="150" width="140" height="30" as="geometry" />
        </mxCell>
        <mxCell id="md73Da2JN6F6e3Sj_Bb3-58" value="Imprimir" style="text;strokeColor=none;fillColor=none;align=left;verticalAlign=middle;spacingLeft=4;spacingRight=4;overflow=hidden;points=[[0,0.5],[1,0.5]];portConstraint=eastwest;rotatable=0;whiteSpace=wrap;html=1;fontStyle=1" vertex="1" parent="md73Da2JN6F6e3Sj_Bb3-52">
          <mxGeometry y="180" width="140" height="30" as="geometry" />
        </mxCell>
        <mxCell id="md73Da2JN6F6e3Sj_Bb3-88" style="edgeStyle=orthogonalEdgeStyle;rounded=0;orthogonalLoop=1;jettySize=auto;html=1;" edge="1" parent="1" source="md73Da2JN6F6e3Sj_Bb3-60" target="md73Da2JN6F6e3Sj_Bb3-87">
          <mxGeometry relative="1" as="geometry" />
        </mxCell>
        <mxCell id="md73Da2JN6F6e3Sj_Bb3-60" value="Tabela de listagem de movimentações" style="swimlane;fontStyle=1;childLayout=stackLayout;horizontal=1;startSize=30;horizontalStack=0;resizeParent=1;resizeParentMax=0;resizeLast=0;collapsible=1;marginBottom=0;whiteSpace=wrap;html=1;fillColor=#dae8fc;strokeColor=#6c8ebf;" vertex="1" parent="1">
          <mxGeometry x="-290" y="670" width="140" height="300" as="geometry" />
        </mxCell>
        <mxCell id="md73Da2JN6F6e3Sj_Bb3-61" value="Ativo" style="text;strokeColor=none;fillColor=none;align=left;verticalAlign=middle;spacingLeft=4;spacingRight=4;overflow=hidden;points=[[0,0.5],[1,0.5]];portConstraint=eastwest;rotatable=0;whiteSpace=wrap;html=1;fontStyle=1" vertex="1" parent="md73Da2JN6F6e3Sj_Bb3-60">
          <mxGeometry y="30" width="140" height="30" as="geometry" />
        </mxCell>
        <mxCell id="md73Da2JN6F6e3Sj_Bb3-62" value="Tipo" style="text;strokeColor=none;fillColor=none;align=left;verticalAlign=middle;spacingLeft=4;spacingRight=4;overflow=hidden;points=[[0,0.5],[1,0.5]];portConstraint=eastwest;rotatable=0;whiteSpace=wrap;html=1;fontStyle=1" vertex="1" parent="md73Da2JN6F6e3Sj_Bb3-60">
          <mxGeometry y="60" width="140" height="30" as="geometry" />
        </mxCell>
        <mxCell id="md73Da2JN6F6e3Sj_Bb3-63" value="Quantidade Uso" style="text;strokeColor=none;fillColor=none;align=left;verticalAlign=middle;spacingLeft=4;spacingRight=4;overflow=hidden;points=[[0,0.5],[1,0.5]];portConstraint=eastwest;rotatable=0;whiteSpace=wrap;html=1;fontStyle=1" vertex="1" parent="md73Da2JN6F6e3Sj_Bb3-60">
          <mxGeometry y="90" width="140" height="30" as="geometry" />
        </mxCell>
        <mxCell id="md73Da2JN6F6e3Sj_Bb3-64" value="Quantidade Última Mov" style="text;strokeColor=none;fillColor=none;align=left;verticalAlign=middle;spacingLeft=4;spacingRight=4;overflow=hidden;points=[[0,0.5],[1,0.5]];portConstraint=eastwest;rotatable=0;whiteSpace=wrap;html=1;fontStyle=1" vertex="1" parent="md73Da2JN6F6e3Sj_Bb3-60">
          <mxGeometry y="120" width="140" height="30" as="geometry" />
        </mxCell>
        <mxCell id="md73Da2JN6F6e3Sj_Bb3-80" value="Quantidade Total" style="text;strokeColor=none;fillColor=none;align=left;verticalAlign=middle;spacingLeft=4;spacingRight=4;overflow=hidden;points=[[0,0.5],[1,0.5]];portConstraint=eastwest;rotatable=0;whiteSpace=wrap;html=1;fontStyle=1" vertex="1" parent="md73Da2JN6F6e3Sj_Bb3-60">
          <mxGeometry y="150" width="140" height="30" as="geometry" />
        </mxCell>
        <mxCell id="md73Da2JN6F6e3Sj_Bb3-81" value="Local Origem" style="text;strokeColor=none;fillColor=none;align=left;verticalAlign=middle;spacingLeft=4;spacingRight=4;overflow=hidden;points=[[0,0.5],[1,0.5]];portConstraint=eastwest;rotatable=0;whiteSpace=wrap;html=1;fontStyle=1" vertex="1" parent="md73Da2JN6F6e3Sj_Bb3-60">
          <mxGeometry y="180" width="140" height="30" as="geometry" />
        </mxCell>
        <mxCell id="md73Da2JN6F6e3Sj_Bb3-82" value="Local Destino" style="text;strokeColor=none;fillColor=none;align=left;verticalAlign=middle;spacingLeft=4;spacingRight=4;overflow=hidden;points=[[0,0.5],[1,0.5]];portConstraint=eastwest;rotatable=0;whiteSpace=wrap;html=1;fontStyle=1" vertex="1" parent="md73Da2JN6F6e3Sj_Bb3-60">
          <mxGeometry y="210" width="140" height="30" as="geometry" />
        </mxCell>
        <mxCell id="md73Da2JN6F6e3Sj_Bb3-83" value="Descrição" style="text;strokeColor=none;fillColor=none;align=left;verticalAlign=middle;spacingLeft=4;spacingRight=4;overflow=hidden;points=[[0,0.5],[1,0.5]];portConstraint=eastwest;rotatable=0;whiteSpace=wrap;html=1;fontStyle=1" vertex="1" parent="md73Da2JN6F6e3Sj_Bb3-60">
          <mxGeometry y="240" width="140" height="30" as="geometry" />
        </mxCell>
        <mxCell id="md73Da2JN6F6e3Sj_Bb3-84" value="Data" style="text;strokeColor=none;fillColor=none;align=left;verticalAlign=middle;spacingLeft=4;spacingRight=4;overflow=hidden;points=[[0,0.5],[1,0.5]];portConstraint=eastwest;rotatable=0;whiteSpace=wrap;html=1;fontStyle=1" vertex="1" parent="md73Da2JN6F6e3Sj_Bb3-60">
          <mxGeometry y="270" width="140" height="30" as="geometry" />
        </mxCell>
        <mxCell id="md73Da2JN6F6e3Sj_Bb3-85" value="Gráfico das movimentações mais movimentadas" style="whiteSpace=wrap;html=1;fillColor=#dae8fc;strokeColor=#6c8ebf;fontStyle=1;startSize=30;" vertex="1" parent="1">
          <mxGeometry x="50" y="790" width="120" height="60" as="geometry" />
        </mxCell>
        <mxCell id="md73Da2JN6F6e3Sj_Bb3-89" style="edgeStyle=orthogonalEdgeStyle;rounded=0;orthogonalLoop=1;jettySize=auto;html=1;" edge="1" parent="1" source="md73Da2JN6F6e3Sj_Bb3-87" target="md73Da2JN6F6e3Sj_Bb3-85">
          <mxGeometry relative="1" as="geometry" />
        </mxCell>
        <mxCell id="md73Da2JN6F6e3Sj_Bb3-87" value="Com base nas informações" style="whiteSpace=wrap;html=1;fillColor=#dae8fc;strokeColor=#6c8ebf;fontStyle=1;startSize=30;" vertex="1" parent="1">
          <mxGeometry x="-110" y="790" width="120" height="60" as="geometry" />
        </mxCell>
        <mxCell id="md73Da2JN6F6e3Sj_Bb3-96" style="edgeStyle=orthogonalEdgeStyle;rounded=0;orthogonalLoop=1;jettySize=auto;html=1;entryX=1;entryY=0.5;entryDx=0;entryDy=0;" edge="1" parent="1" target="md73Da2JN6F6e3Sj_Bb3-93">
          <mxGeometry relative="1" as="geometry">
            <mxPoint x="250" y="590" as="sourcePoint" />
          </mxGeometry>
        </mxCell>
        <mxCell id="md73Da2JN6F6e3Sj_Bb3-97" style="edgeStyle=orthogonalEdgeStyle;rounded=0;orthogonalLoop=1;jettySize=auto;html=1;entryX=1;entryY=0.5;entryDx=0;entryDy=0;exitX=0;exitY=0.5;exitDx=0;exitDy=0;" edge="1" parent="1" source="md73Da2JN6F6e3Sj_Bb3-91" target="md73Da2JN6F6e3Sj_Bb3-94">
          <mxGeometry relative="1" as="geometry">
            <mxPoint x="250" y="590" as="sourcePoint" />
          </mxGeometry>
        </mxCell>
        <mxCell id="md73Da2JN6F6e3Sj_Bb3-98" style="edgeStyle=orthogonalEdgeStyle;rounded=0;orthogonalLoop=1;jettySize=auto;html=1;entryX=1;entryY=0.5;entryDx=0;entryDy=0;" edge="1" parent="1" target="md73Da2JN6F6e3Sj_Bb3-95">
          <mxGeometry relative="1" as="geometry">
            <mxPoint x="250" y="590" as="sourcePoint" />
          </mxGeometry>
        </mxCell>
        <mxCell id="md73Da2JN6F6e3Sj_Bb3-91" value="Tipo de Mov" style="rhombus;whiteSpace=wrap;html=1;fillColor=#fff2cc;strokeColor=#d6b656;fontStyle=1;startSize=30;" vertex="1" parent="1">
          <mxGeometry x="280" y="550" width="80" height="80" as="geometry" />
        </mxCell>
        <mxCell id="md73Da2JN6F6e3Sj_Bb3-103" value="" style="edgeStyle=orthogonalEdgeStyle;rounded=0;orthogonalLoop=1;jettySize=auto;html=1;" edge="1" parent="1" source="md73Da2JN6F6e3Sj_Bb3-93" target="md73Da2JN6F6e3Sj_Bb3-102">
          <mxGeometry relative="1" as="geometry" />
        </mxCell>
        <mxCell id="md73Da2JN6F6e3Sj_Bb3-93" value="Adicionar" style="whiteSpace=wrap;html=1;fillColor=#dae8fc;strokeColor=#6c8ebf;fontStyle=1;startSize=30;" vertex="1" parent="1">
          <mxGeometry x="160" y="535" width="60" height="30" as="geometry" />
        </mxCell>
        <mxCell id="md73Da2JN6F6e3Sj_Bb3-105" value="" style="edgeStyle=orthogonalEdgeStyle;rounded=0;orthogonalLoop=1;jettySize=auto;html=1;" edge="1" parent="1" source="md73Da2JN6F6e3Sj_Bb3-94" target="md73Da2JN6F6e3Sj_Bb3-104">
          <mxGeometry relative="1" as="geometry" />
        </mxCell>
        <mxCell id="md73Da2JN6F6e3Sj_Bb3-94" value="Realocar" style="whiteSpace=wrap;html=1;fillColor=#dae8fc;strokeColor=#6c8ebf;fontStyle=1;startSize=30;" vertex="1" parent="1">
          <mxGeometry x="160" y="575" width="60" height="30" as="geometry" />
        </mxCell>
        <mxCell id="md73Da2JN6F6e3Sj_Bb3-108" style="edgeStyle=orthogonalEdgeStyle;rounded=0;orthogonalLoop=1;jettySize=auto;html=1;entryX=1;entryY=0.5;entryDx=0;entryDy=0;" edge="1" parent="1" source="md73Da2JN6F6e3Sj_Bb3-95" target="md73Da2JN6F6e3Sj_Bb3-107">
          <mxGeometry relative="1" as="geometry" />
        </mxCell>
        <mxCell id="md73Da2JN6F6e3Sj_Bb3-95" value="Remover" style="whiteSpace=wrap;html=1;fillColor=#dae8fc;strokeColor=#6c8ebf;fontStyle=1;startSize=30;" vertex="1" parent="1">
          <mxGeometry x="160" y="615" width="60" height="30" as="geometry" />
        </mxCell>
        <mxCell id="md73Da2JN6F6e3Sj_Bb3-119" style="edgeStyle=orthogonalEdgeStyle;rounded=0;orthogonalLoop=1;jettySize=auto;html=1;entryX=1;entryY=0.5;entryDx=0;entryDy=0;" edge="1" parent="1" source="md73Da2JN6F6e3Sj_Bb3-102" target="md73Da2JN6F6e3Sj_Bb3-116">
          <mxGeometry relative="1" as="geometry" />
        </mxCell>
        <mxCell id="md73Da2JN6F6e3Sj_Bb3-102" value="Quantidade de movimentação mais a quantidade de uso, quantidade total tenque ser menor que a quantidade total" style="whiteSpace=wrap;html=1;fillColor=#dae8fc;strokeColor=#6c8ebf;fontStyle=1;startSize=30;" vertex="1" parent="1">
          <mxGeometry x="-10" y="450" width="130" height="90" as="geometry" />
        </mxCell>
        <mxCell id="md73Da2JN6F6e3Sj_Bb3-118" style="edgeStyle=orthogonalEdgeStyle;rounded=0;orthogonalLoop=1;jettySize=auto;html=1;" edge="1" parent="1" source="md73Da2JN6F6e3Sj_Bb3-104" target="md73Da2JN6F6e3Sj_Bb3-116">
          <mxGeometry relative="1" as="geometry" />
        </mxCell>
        <mxCell id="md73Da2JN6F6e3Sj_Bb3-104" value="Quantidade de uso menos a quantidade de movimentação" style="whiteSpace=wrap;html=1;fillColor=#dae8fc;strokeColor=#6c8ebf;fontStyle=1;startSize=30;" vertex="1" parent="1">
          <mxGeometry x="-5" y="560" width="120" height="60" as="geometry" />
        </mxCell>
        <mxCell id="md73Da2JN6F6e3Sj_Bb3-117" style="edgeStyle=orthogonalEdgeStyle;rounded=0;orthogonalLoop=1;jettySize=auto;html=1;entryX=1;entryY=0.5;entryDx=0;entryDy=0;" edge="1" parent="1" source="md73Da2JN6F6e3Sj_Bb3-107" target="md73Da2JN6F6e3Sj_Bb3-116">
          <mxGeometry relative="1" as="geometry" />
        </mxCell>
        <mxCell id="md73Da2JN6F6e3Sj_Bb3-107" value="Quantidade de uso menos a quantidade de movimentação, sendo maior que zero" style="whiteSpace=wrap;html=1;fillColor=#dae8fc;strokeColor=#6c8ebf;fontStyle=1;startSize=30;" vertex="1" parent="1">
          <mxGeometry x="-10" y="640" width="130" height="70" as="geometry" />
        </mxCell>
        <mxCell id="md73Da2JN6F6e3Sj_Bb3-109" value="Sim" style="rounded=0;whiteSpace=wrap;html=1;fillColor=#d5e8d4;strokeColor=#82b366;fontStyle=1" vertex="1" parent="1">
          <mxGeometry x="245" y="565" width="30" height="20" as="geometry" />
        </mxCell>
        <mxCell id="md73Da2JN6F6e3Sj_Bb3-120" style="edgeStyle=orthogonalEdgeStyle;rounded=0;orthogonalLoop=1;jettySize=auto;html=1;" edge="1" parent="1" source="md73Da2JN6F6e3Sj_Bb3-116" target="md73Da2JN6F6e3Sj_Bb3-31">
          <mxGeometry relative="1" as="geometry" />
        </mxCell>
        <mxCell id="md73Da2JN6F6e3Sj_Bb3-123" value="" style="edgeStyle=orthogonalEdgeStyle;rounded=0;orthogonalLoop=1;jettySize=auto;html=1;" edge="1" parent="1" source="md73Da2JN6F6e3Sj_Bb3-116" target="md73Da2JN6F6e3Sj_Bb3-122">
          <mxGeometry relative="1" as="geometry" />
        </mxCell>
        <mxCell id="md73Da2JN6F6e3Sj_Bb3-116" value="Verificação" style="rhombus;whiteSpace=wrap;html=1;fillColor=#fff2cc;strokeColor=#d6b656;fontStyle=1;startSize=30;" vertex="1" parent="1">
          <mxGeometry x="-130" y="550" width="80" height="80" as="geometry" />
        </mxCell>
        <mxCell id="md73Da2JN6F6e3Sj_Bb3-122" value="Alerta Informando que não é permitido realizar a movimentação" style="whiteSpace=wrap;html=1;fillColor=#f8cecc;strokeColor=#b85450;fontStyle=1;startSize=30;" vertex="1" parent="1">
          <mxGeometry x="-200" y="440" width="120" height="60" as="geometry" />
        </mxCell>
        <mxCell id="md73Da2JN6F6e3Sj_Bb3-124" value="Não" style="rounded=0;whiteSpace=wrap;html=1;fillColor=#f8cecc;strokeColor=#b85450;fontStyle=1" vertex="1" parent="1">
          <mxGeometry x="-130" y="530" width="30" height="20" as="geometry" />
        </mxCell>
      </root>
    </mxGraphModel>
  </diagram>
</mxfile>
